<mxfile host="app.diagrams.net" agent="Mozilla/5.0 (Windows NT 10.0; Win64; x64) AppleWebKit/537.36 (KHTML, like Gecko) Chrome/141.0.0.0 Safari/537.36" version="28.2.7">
  <diagram name="第 1 页" id="OqW3LYm-kRTg0cfdvNYn">
    <mxGraphModel dx="1426" dy="795" grid="1" gridSize="10" guides="1" tooltips="1" connect="1" arrows="1" fold="1" page="1" pageScale="1" pageWidth="827" pageHeight="1169" math="0" shadow="0">
      <root>
        <mxCell id="0" />
        <mxCell id="1" parent="0" />
        <mxCell id="HjwtmvMxZpDeh4qenirL-7" value="" style="rounded=0;whiteSpace=wrap;html=1;" vertex="1" parent="1">
          <mxGeometry x="730" y="200" width="220" height="250" as="geometry" />
        </mxCell>
        <mxCell id="HjwtmvMxZpDeh4qenirL-4" style="edgeStyle=none;curved=1;rounded=0;orthogonalLoop=1;jettySize=auto;html=1;entryX=0;entryY=0.5;entryDx=0;entryDy=0;fontSize=12;startSize=8;endSize=8;" edge="1" parent="1" source="cTed1zHCf9veyVw_R5J6-1" target="HjwtmvMxZpDeh4qenirL-2">
          <mxGeometry relative="1" as="geometry" />
        </mxCell>
        <mxCell id="cTed1zHCf9veyVw_R5J6-1" value="" style="rounded=0;whiteSpace=wrap;html=1;" parent="1" vertex="1">
          <mxGeometry x="50" y="240" width="220" height="220" as="geometry" />
        </mxCell>
        <mxCell id="cTed1zHCf9veyVw_R5J6-2" value="&lt;font style=&quot;font-size: 12px; color: rgb(0, 0, 0);&quot;&gt;&lt;b&gt;Step 1&lt;/b&gt;: &lt;font face=&quot;Helvetica&quot;&gt;生成&amp;nbsp;&lt;span style=&quot;background-color: rgb(255, 255, 254); white-space: pre;&quot;&gt;A&amp;amp;P&amp;nbsp;方案书变化明细表&lt;/span&gt;&lt;/font&gt;&lt;/font&gt;" style="text;strokeColor=none;fillColor=none;html=1;align=left;verticalAlign=middle;whiteSpace=wrap;rounded=0;fontSize=16;" parent="1" vertex="1">
          <mxGeometry x="60" y="240" width="200" height="30" as="geometry" />
        </mxCell>
        <mxCell id="cTed1zHCf9veyVw_R5J6-3" value="&lt;div style=&quot;line-height: 200%;&quot;&gt;&lt;font face=&quot;Tahoma&quot;&gt;1、group by 到 方案书、sku、sub brand、科目；&lt;/font&gt;&lt;div&gt;&lt;font face=&quot;Tahoma&quot;&gt;2、取预提明细中，费用类型为 A&amp;amp;P 的数据；&lt;/font&gt;&lt;/div&gt;&lt;div&gt;&lt;font face=&quot;Tahoma&quot;&gt;3、当月月结金额 - 上月月结金额 为待拆分数。&lt;/font&gt;&lt;/div&gt;&lt;/div&gt;" style="text;strokeColor=none;fillColor=none;html=1;align=left;verticalAlign=middle;whiteSpace=wrap;rounded=0;fontSize=12;" parent="1" vertex="1">
          <mxGeometry x="60" y="290" width="200" height="140" as="geometry" />
        </mxCell>
        <mxCell id="HjwtmvMxZpDeh4qenirL-11" style="edgeStyle=orthogonalEdgeStyle;rounded=0;orthogonalLoop=1;jettySize=auto;html=1;entryX=0;entryY=0.25;entryDx=0;entryDy=0;fontSize=12;startSize=8;endSize=8;" edge="1" parent="1" source="HjwtmvMxZpDeh4qenirL-2" target="HjwtmvMxZpDeh4qenirL-5">
          <mxGeometry relative="1" as="geometry">
            <Array as="points">
              <mxPoint x="570" y="350" />
              <mxPoint x="570" y="305" />
            </Array>
          </mxGeometry>
        </mxCell>
        <mxCell id="HjwtmvMxZpDeh4qenirL-15" value="方案书状态&lt;div&gt;不是“&lt;b&gt;核销&lt;/b&gt;”开头的&lt;/div&gt;" style="edgeLabel;html=1;align=center;verticalAlign=middle;resizable=0;points=[];fontSize=12;" vertex="1" connectable="0" parent="HjwtmvMxZpDeh4qenirL-11">
          <mxGeometry x="0.5027" y="-1" relative="1" as="geometry">
            <mxPoint x="-29" y="-1" as="offset" />
          </mxGeometry>
        </mxCell>
        <mxCell id="HjwtmvMxZpDeh4qenirL-12" style="edgeStyle=orthogonalEdgeStyle;rounded=0;orthogonalLoop=1;jettySize=auto;html=1;entryX=0;entryY=0.5;entryDx=0;entryDy=0;fontSize=12;startSize=8;endSize=8;exitX=1;exitY=0.5;exitDx=0;exitDy=0;" edge="1" parent="1" source="HjwtmvMxZpDeh4qenirL-2" target="HjwtmvMxZpDeh4qenirL-6">
          <mxGeometry relative="1" as="geometry">
            <Array as="points">
              <mxPoint x="570" y="350" />
              <mxPoint x="570" y="400" />
            </Array>
          </mxGeometry>
        </mxCell>
        <mxCell id="HjwtmvMxZpDeh4qenirL-2" value="Step 2: 判断方案书状态" style="rhombus;whiteSpace=wrap;html=1;" vertex="1" parent="1">
          <mxGeometry x="350" y="305" width="160" height="90" as="geometry" />
        </mxCell>
        <mxCell id="HjwtmvMxZpDeh4qenirL-5" value="费用使用区域By方案书&lt;div&gt;（执行确认金额）&lt;/div&gt;" style="rounded=0;whiteSpace=wrap;html=1;" vertex="1" parent="1">
          <mxGeometry x="750" y="290" width="180" height="60" as="geometry" />
        </mxCell>
        <mxCell id="HjwtmvMxZpDeh4qenirL-6" value="费用使用区域By方案书&lt;div&gt;（核销金额）&lt;/div&gt;" style="rounded=0;whiteSpace=wrap;html=1;" vertex="1" parent="1">
          <mxGeometry x="750" y="370" width="180" height="60" as="geometry" />
        </mxCell>
        <mxCell id="HjwtmvMxZpDeh4qenirL-8" value="&lt;font style=&quot;font-size: 12px; color: rgb(0, 0, 0);&quot;&gt;&lt;b&gt;Step 3&lt;/b&gt;: 生成分拆结果&lt;/font&gt;" style="text;strokeColor=none;fillColor=none;html=1;align=left;verticalAlign=middle;whiteSpace=wrap;rounded=0;fontSize=16;" vertex="1" parent="1">
          <mxGeometry x="750" y="200" width="130" height="30" as="geometry" />
        </mxCell>
        <mxCell id="HjwtmvMxZpDeh4qenirL-9" value="&lt;div style=&quot;line-height: 200%;&quot;&gt;&lt;font face=&quot;Tahoma&quot;&gt;group by 到 方案书、sku、sub brand、科目。&lt;/font&gt;&lt;/div&gt;" style="text;strokeColor=none;fillColor=none;html=1;align=left;verticalAlign=middle;whiteSpace=wrap;rounded=0;fontSize=12;" vertex="1" parent="1">
          <mxGeometry x="750" y="230" width="200" height="50" as="geometry" />
        </mxCell>
        <mxCell id="HjwtmvMxZpDeh4qenirL-13" value="1、中台的分拆逻辑是否正确？" style="text;strokeColor=none;fillColor=none;html=1;align=left;verticalAlign=middle;whiteSpace=wrap;rounded=0;fontSize=16;" vertex="1" parent="1">
          <mxGeometry x="50" y="160" width="270" height="30" as="geometry" />
        </mxCell>
        <mxCell id="HjwtmvMxZpDeh4qenirL-16" value="方案书状态&lt;div&gt;以“&lt;b&gt;核销&lt;/b&gt;”开头的&lt;/div&gt;" style="edgeLabel;html=1;align=center;verticalAlign=middle;resizable=0;points=[];fontSize=12;" vertex="1" connectable="0" parent="1">
          <mxGeometry x="660" y="395" as="geometry">
            <mxPoint x="-2" y="-3" as="offset" />
          </mxGeometry>
        </mxCell>
        <mxCell id="HjwtmvMxZpDeh4qenirL-17" value="&lt;font&gt;2、&lt;span style=&quot;white-space: pre; background-color: rgb(255, 255, 254);&quot;&gt;A&amp;amp;P&amp;nbsp;方案书变化明细表 存在，在 TPM 的费用使用区域 的数据中不存在，是否需要分拆？&lt;/span&gt;&lt;/font&gt;" style="text;strokeColor=none;fillColor=none;html=1;align=left;verticalAlign=middle;whiteSpace=wrap;rounded=0;fontSize=16;" vertex="1" parent="1">
          <mxGeometry x="50" y="500" width="740" height="30" as="geometry" />
        </mxCell>
      </root>
    </mxGraphModel>
  </diagram>
</mxfile>
